<svg xmlns="http://www.w3.org/2000/svg" xmlns:xlink="http://www.w3.org/1999/xlink" width="70" zoomAndPan="magnify" viewBox="0 0 52.5 52.499999" height="70" preserveAspectRatio="xMidYMid meet" version="1.0"><defs><clipPath id="9dd2eed90f"><path d="M 4.453125 3.691406 L 46.453125 3.691406 L 46.453125 47.191406 L 4.453125 47.191406 Z M 4.453125 3.691406 " clip-rule="nonzero"/></clipPath></defs><path fill="#b23614" d="M 36.667969 41.816406 L 36.667969 43.960938 C 36.667969 44.144531 36.816406 44.289062 37 44.289062 L 40.292969 44.289062 C 40.476562 44.289062 40.625 44.144531 40.625 43.960938 L 40.625 41.816406 C 40.625 40.800781 39.800781 39.976562 38.785156 39.976562 L 38.507812 39.976562 C 37.492188 39.976562 36.667969 40.800781 36.667969 41.816406 Z M 37.332031 41.816406 C 37.332031 41.164062 37.859375 40.636719 38.507812 40.636719 L 38.785156 40.636719 C 39.433594 40.636719 39.964844 41.164062 39.964844 41.816406 L 39.964844 43.628906 L 37.332031 43.628906 Z M 37.332031 41.816406 " fill-opacity="1" fill-rule="nonzero"/><path fill="#b23614" d="M 12.308594 39.976562 L 12.027344 39.976562 C 11.015625 39.976562 10.191406 40.800781 10.191406 41.816406 L 10.191406 43.960938 C 10.191406 44.144531 10.339844 44.289062 10.519531 44.289062 L 13.816406 44.289062 C 13.996094 44.289062 14.144531 44.144531 14.144531 43.960938 L 14.144531 41.816406 C 14.144531 40.800781 13.320312 39.976562 12.308594 39.976562 Z M 13.484375 43.628906 L 10.851562 43.628906 L 10.851562 41.816406 C 10.851562 41.164062 11.378906 40.636719 12.027344 40.636719 L 12.308594 40.636719 C 12.957031 40.636719 13.484375 41.164062 13.484375 41.816406 Z M 13.484375 43.628906 " fill-opacity="1" fill-rule="nonzero"/><g clip-path="url(#9dd2eed90f)"><path fill="#b23614" d="M 5.011719 32.125 L 7.59375 30.582031 L 7.59375 46.863281 C 7.59375 47.046875 7.742188 47.191406 7.925781 47.191406 L 42.839844 47.191406 C 43.023438 47.191406 43.171875 47.046875 43.171875 46.863281 L 43.171875 30.507812 L 45.894531 32.128906 C 45.945312 32.160156 46.003906 32.175781 46.0625 32.175781 C 46.175781 32.175781 46.285156 32.117188 46.347656 32.011719 C 46.441406 31.855469 46.386719 31.652344 46.230469 31.558594 L 32.835938 23.597656 L 32.835938 15.84375 L 35.601562 17.574219 C 35.65625 17.609375 35.71875 17.625 35.777344 17.625 C 35.886719 17.625 35.996094 17.570312 36.058594 17.46875 C 36.152344 17.316406 36.105469 17.113281 35.953125 17.015625 L 32.683594 14.964844 L 31.285156 14.089844 L 25.734375 10.613281 L 25.734375 6.574219 L 27.777344 6.574219 C 27.957031 6.574219 28.105469 6.425781 28.105469 6.246094 C 28.105469 6.0625 27.957031 5.914062 27.777344 5.914062 L 25.734375 5.914062 L 25.734375 4.023438 C 25.734375 3.839844 25.585938 3.691406 25.402344 3.691406 C 25.21875 3.691406 25.070312 3.839844 25.070312 4.023438 L 25.070312 5.914062 L 23.027344 5.914062 C 22.84375 5.914062 22.699219 6.0625 22.699219 6.246094 C 22.699219 6.425781 22.84375 6.574219 23.027344 6.574219 L 25.070312 6.574219 L 25.070312 10.65625 L 14.875 16.945312 C 14.722656 17.039062 14.671875 17.242188 14.769531 17.398438 C 14.863281 17.554688 15.066406 17.601562 15.222656 17.507812 L 17.929688 15.839844 L 17.929688 23.625 L 4.671875 31.558594 C 4.515625 31.652344 4.464844 31.855469 4.558594 32.011719 C 4.652344 32.167969 4.855469 32.21875 5.011719 32.125 Z M 25.109375 46.53125 L 22.148438 46.53125 L 22.148438 43.4375 C 22.148438 41.800781 23.472656 40.46875 25.109375 40.457031 Z M 28.730469 46.53125 L 25.769531 46.53125 L 25.769531 40.453125 C 27.402344 40.46875 28.730469 41.800781 28.730469 43.4375 Z M 32.835938 24.398438 L 42.511719 30.191406 L 42.511719 46.53125 L 34.773438 46.53125 L 34.773438 31.730469 L 37.074219 33.105469 C 37.128906 33.136719 37.1875 33.152344 37.246094 33.152344 C 37.355469 33.152344 37.464844 33.097656 37.527344 32.992188 C 37.621094 32.835938 37.570312 32.632812 37.414062 32.539062 L 34.613281 30.863281 L 32.835938 29.796875 Z M 18.589844 15.429688 L 25.277344 11.308594 L 25.4375 11.207031 L 31.234375 14.839844 L 32.175781 15.429688 L 32.175781 29.402344 L 25.554688 25.4375 C 25.449219 25.375 25.316406 25.375 25.214844 25.4375 L 18.589844 29.402344 Z M 21.367188 28.511719 L 25.382812 26.105469 L 29.402344 28.511719 L 34.113281 31.332031 L 34.113281 46.53125 L 29.390625 46.53125 L 29.390625 43.4375 C 29.390625 41.429688 27.757812 39.792969 25.746094 39.792969 L 25.128906 39.792969 C 23.121094 39.792969 21.488281 41.429688 21.488281 43.4375 L 21.488281 46.53125 L 16.652344 46.53125 L 16.652344 31.332031 Z M 8.253906 30.191406 L 17.929688 24.398438 L 17.929688 29.796875 L 16.152344 30.863281 L 13.351562 32.539062 C 13.195312 32.632812 13.144531 32.835938 13.238281 32.992188 C 13.332031 33.148438 13.535156 33.199219 13.691406 33.105469 L 15.992188 31.730469 L 15.992188 46.53125 L 8.253906 46.53125 Z M 8.253906 30.191406 " fill-opacity="1" fill-rule="nonzero"/></g><path fill="#b23614" d="M 23.6875 32.125 L 25.070312 32.125 L 25.070312 35.097656 C 25.070312 35.28125 25.21875 35.429688 25.402344 35.429688 C 25.585938 35.429688 25.734375 35.28125 25.734375 35.097656 L 25.734375 32.125 L 27.117188 32.125 C 27.300781 32.125 27.449219 31.976562 27.449219 31.792969 C 27.449219 31.609375 27.300781 31.460938 27.117188 31.460938 L 25.734375 31.460938 L 25.734375 30.1875 C 25.734375 30.007812 25.585938 29.859375 25.402344 29.859375 C 25.21875 29.859375 25.070312 30.007812 25.070312 30.1875 L 25.070312 31.460938 L 23.6875 31.460938 C 23.503906 31.460938 23.355469 31.609375 23.355469 31.792969 C 23.355469 31.976562 23.503906 32.125 23.6875 32.125 Z M 23.6875 32.125 " fill-opacity="1" fill-rule="nonzero"/><path fill="#b23614" d="M 25.394531 23.089844 C 25.492188 23.089844 25.589844 23.070312 25.679688 23.03125 C 25.835938 22.964844 25.992188 22.890625 26.171875 22.789062 C 26.390625 22.667969 26.601562 22.53125 26.800781 22.386719 C 28.050781 21.46875 28.652344 20.421875 28.546875 19.359375 C 28.464844 18.507812 27.773438 17.839844 26.945312 17.800781 C 26.574219 17.785156 26.1875 17.914062 25.835938 18.179688 C 25.667969 18.308594 25.515625 18.449219 25.382812 18.605469 C 25.253906 18.449219 25.097656 18.308594 24.929688 18.179688 C 24.578125 17.914062 24.195312 17.785156 23.820312 17.800781 C 22.992188 17.839844 22.304688 18.507812 22.21875 19.359375 C 22.113281 20.421875 22.714844 21.46875 23.964844 22.386719 C 24.164062 22.53125 24.375 22.667969 24.589844 22.785156 C 24.777344 22.890625 24.929688 22.964844 25.085938 23.03125 C 25.183594 23.070312 25.28125 23.089844 25.382812 23.089844 C 25.386719 23.089844 25.390625 23.089844 25.394531 23.089844 Z M 24.910156 22.207031 C 24.71875 22.101562 24.53125 21.984375 24.355469 21.851562 C 23.625 21.3125 22.773438 20.457031 22.875 19.425781 C 22.925781 18.910156 23.355469 18.484375 23.851562 18.460938 C 23.863281 18.460938 23.875 18.460938 23.886719 18.460938 C 24.148438 18.460938 24.382812 18.59375 24.535156 18.710938 C 24.710938 18.84375 24.867188 19 24.984375 19.164062 C 25.074219 19.292969 25.226562 19.371094 25.382812 19.371094 C 25.542969 19.371094 25.691406 19.292969 25.785156 19.164062 C 25.898438 19 26.054688 18.84375 26.230469 18.710938 C 26.390625 18.589844 26.640625 18.449219 26.917969 18.460938 C 27.410156 18.484375 27.839844 18.910156 27.890625 19.425781 C 27.992188 20.457031 27.140625 21.3125 26.410156 21.851562 C 26.234375 21.984375 26.046875 22.101562 25.851562 22.207031 C 25.691406 22.300781 25.558594 22.363281 25.421875 22.421875 C 25.410156 22.425781 25.398438 22.429688 25.382812 22.429688 C 25.371094 22.429688 25.355469 22.425781 25.34375 22.421875 C 25.207031 22.363281 25.074219 22.300781 24.910156 22.207031 Z M 24.910156 22.207031 " fill-opacity="1" fill-rule="nonzero"/></svg>