<svg xmlns="http://www.w3.org/2000/svg" xmlns:xlink="http://www.w3.org/1999/xlink" width="70" zoomAndPan="magnify" viewBox="0 0 52.5 52.499999" height="70" preserveAspectRatio="xMidYMid meet" version="1.0"><defs><clipPath id="3a6a5ae50b"><path d="M 8.683594 3.351562 L 41.683594 3.351562 L 41.683594 49.09375 L 8.683594 49.09375 Z M 8.683594 3.351562 " clip-rule="nonzero"/></clipPath></defs><g clip-path="url(#3a6a5ae50b)"><path fill="#b23614" d="M 11.808594 48.132812 L 38.5625 48.132812 C 39.757812 48.132812 40.726562 47.15625 40.726562 45.953125 L 40.726562 6.492188 C 40.726562 5.289062 39.757812 4.316406 38.5625 4.316406 L 11.808594 4.316406 C 10.613281 4.316406 9.640625 5.289062 9.640625 6.492188 L 9.640625 45.953125 C 9.640625 47.15625 10.613281 48.132812 11.808594 48.132812 Z M 39.519531 49.09375 L 10.851562 49.09375 C 9.652344 49.09375 8.683594 48.117188 8.683594 46.917969 L 8.683594 5.53125 C 8.683594 4.328125 9.652344 3.355469 10.851562 3.355469 L 39.519531 3.355469 C 40.714844 3.355469 41.683594 4.328125 41.683594 5.53125 L 41.683594 46.917969 C 41.683594 48.117188 40.714844 49.09375 39.519531 49.09375 " fill-opacity="1" fill-rule="nonzero"/></g><path fill="#b23614" d="M 13.179688 21.324219 L 12.085938 19.910156 C 11.980469 19.777344 11.992188 19.585938 12.109375 19.460938 C 12.25 19.316406 12.441406 19.128906 12.574219 19.28125 L 13.171875 19.960938 C 13.316406 20.121094 13.566406 20.113281 13.699219 19.945312 L 14.898438 18.40625 C 14.992188 18.289062 15.164062 18.277344 15.269531 18.382812 L 15.613281 18.730469 C 15.742188 18.859375 15.75 19.066406 15.625 19.203125 L 13.703125 21.339844 C 13.5625 21.5 13.3125 21.492188 13.179688 21.324219 " fill-opacity="1" fill-rule="nonzero"/><path fill="#b23614" d="M 13.179688 28.160156 L 12.085938 26.75 C 11.980469 26.617188 11.992188 26.421875 12.109375 26.300781 C 12.25 26.15625 12.441406 25.96875 12.574219 26.121094 L 13.171875 26.796875 C 13.316406 26.960938 13.566406 26.953125 13.699219 26.78125 L 14.742188 25.445312 C 14.917969 25.222656 15.25 25.203125 15.449219 25.402344 L 15.613281 25.570312 C 15.742188 25.699219 15.75 25.90625 15.625 26.042969 L 13.703125 28.179688 C 13.5625 28.339844 13.3125 28.328125 13.179688 28.160156 " fill-opacity="1" fill-rule="nonzero"/><path fill="#b23614" d="M 13.179688 35.6875 L 12.085938 34.277344 C 11.980469 34.140625 11.992188 33.949219 12.109375 33.824219 C 12.25 33.683594 12.441406 33.496094 12.574219 33.644531 L 13.171875 34.324219 C 13.316406 34.484375 13.566406 34.476562 13.699219 34.308594 L 14.742188 32.972656 C 14.917969 32.75 15.25 32.726562 15.449219 32.929688 L 15.613281 33.09375 C 15.742188 33.226562 15.75 33.433594 15.625 33.570312 L 13.703125 35.707031 C 13.5625 35.867188 13.3125 35.855469 13.179688 35.6875 " fill-opacity="1" fill-rule="nonzero"/><path fill="#b23614" d="M 24.597656 12.5625 C 24.082031 13.078125 23.269531 13.691406 22.800781 13.652344 C 22.046875 13.59375 21.070312 12.570312 21.070312 12.570312 C 21.070312 12.570312 18.738281 10.890625 20.140625 9.257812 C 21.140625 8.085938 22.800781 9.960938 22.800781 9.960938 C 22.800781 9.960938 24.351562 7.976562 25.566406 8.65625 C 27.027344 9.476562 25.5 11.667969 24.597656 12.5625 Z M 26.265625 7.753906 C 24.503906 6.765625 22.808594 8.628906 22.808594 8.628906 C 22.167969 8.121094 21.296875 7.714844 20.472656 7.714844 C 19.128906 7.714844 18.125 9.128906 18.324219 10.425781 C 18.550781 11.925781 20.082031 13.160156 21.191406 14.023438 C 21.535156 14.289062 21.890625 14.554688 22.300781 14.699219 C 23.523438 15.136719 24.621094 13.996094 25.410156 13.207031 C 26.714844 11.910156 28.382812 8.941406 26.265625 7.753906 " fill-opacity="1" fill-rule="nonzero"/><path fill="#b23614" d="M 29.429688 14.058594 C 28.914062 14.570312 28.097656 15.183594 27.632812 15.148438 C 26.878906 15.085938 25.898438 14.0625 25.898438 14.0625 C 25.898438 14.0625 23.273438 12.382812 24.671875 10.75 C 25.675781 9.578125 27.632812 11.457031 27.632812 11.457031 C 27.632812 11.457031 28.804688 9.609375 30.019531 10.292969 C 31.480469 11.113281 30.328125 13.164062 29.429688 14.058594 Z M 31.097656 9.246094 C 29.335938 8.257812 27.644531 10.375 27.644531 10.375 C 27.007812 9.867188 26.128906 9.207031 25.304688 9.207031 C 23.960938 9.210938 22.957031 10.621094 23.152344 11.921875 C 23.382812 13.417969 24.914062 14.65625 26.023438 15.515625 C 26.367188 15.785156 26.722656 16.046875 27.128906 16.195312 C 28.355469 16.628906 29.453125 15.488281 30.242188 14.703125 C 31.546875 13.40625 33.210938 10.4375 31.097656 9.246094 " fill-opacity="1" fill-rule="nonzero"/><path fill="#b23614" d="M 36.992188 19.863281 L 17.917969 19.863281 C 17.578125 19.863281 17.300781 19.585938 17.300781 19.242188 C 17.300781 18.902344 17.578125 18.625 17.917969 18.625 L 36.992188 18.625 C 37.335938 18.625 37.609375 18.902344 37.609375 19.242188 C 37.609375 19.585938 37.335938 19.863281 36.992188 19.863281 " fill-opacity="1" fill-rule="nonzero"/><path fill="#b23614" d="M 36.992188 23.777344 L 17.917969 23.777344 C 17.578125 23.777344 17.300781 23.5 17.300781 23.15625 C 17.300781 22.816406 17.578125 22.535156 17.917969 22.535156 L 36.992188 22.535156 C 37.335938 22.535156 37.609375 22.816406 37.609375 23.15625 C 37.609375 23.5 37.335938 23.777344 36.992188 23.777344 " fill-opacity="1" fill-rule="nonzero"/><path fill="#b23614" d="M 36.992188 27.691406 L 17.917969 27.691406 C 17.578125 27.691406 17.300781 27.414062 17.300781 27.070312 C 17.300781 26.726562 17.578125 26.449219 17.917969 26.449219 L 36.992188 26.449219 C 37.335938 26.449219 37.609375 26.726562 37.609375 27.070312 C 37.609375 27.414062 37.335938 27.691406 36.992188 27.691406 " fill-opacity="1" fill-rule="nonzero"/><path fill="#b23614" d="M 36.992188 31.601562 L 17.917969 31.601562 C 17.578125 31.601562 17.300781 31.324219 17.300781 30.984375 C 17.300781 30.640625 17.578125 30.363281 17.917969 30.363281 L 36.992188 30.363281 C 37.335938 30.363281 37.609375 30.640625 37.609375 30.984375 C 37.609375 31.324219 37.335938 31.601562 36.992188 31.601562 " fill-opacity="1" fill-rule="nonzero"/><path fill="#b23614" d="M 36.992188 35.515625 L 17.917969 35.515625 C 17.578125 35.515625 17.300781 35.238281 17.300781 34.898438 C 17.300781 34.554688 17.578125 34.277344 17.917969 34.277344 L 36.992188 34.277344 C 37.335938 34.277344 37.609375 34.554688 37.609375 34.898438 C 37.609375 35.238281 37.335938 35.515625 36.992188 35.515625 " fill-opacity="1" fill-rule="nonzero"/><path fill="#b23614" d="M 23.625 43.644531 L 18.152344 43.644531 C 17.828125 43.644531 17.5625 43.378906 17.5625 43.054688 C 17.5625 42.726562 17.828125 42.460938 18.152344 42.460938 L 23.625 42.460938 C 23.953125 42.460938 24.214844 42.726562 24.214844 43.054688 C 24.214844 43.378906 23.953125 43.644531 23.625 43.644531 " fill-opacity="1" fill-rule="nonzero"/><path fill="#b23614" d="M 33.917969 38.183594 C 31.632812 37.941406 29.714844 39.867188 29.957031 42.164062 C 30.132812 43.839844 31.472656 45.183594 33.136719 45.363281 C 35.421875 45.605469 37.339844 43.679688 37.097656 41.382812 C 36.921875 39.707031 35.582031 38.359375 33.917969 38.183594 Z M 33.941406 46.320312 C 31.113281 46.574219 28.753906 44.199219 29.003906 41.355469 C 29.199219 39.175781 30.945312 37.421875 33.113281 37.226562 C 35.941406 36.972656 38.304688 39.34375 38.050781 42.191406 C 37.859375 44.371094 36.109375 46.125 33.941406 46.320312 " fill-opacity="1" fill-rule="nonzero"/><path fill="#b23614" d="M 35.835938 42.222656 C 35.640625 42.160156 35.523438 41.964844 35.523438 41.757812 C 35.515625 40.664062 34.632812 39.777344 33.542969 39.769531 C 33.335938 39.765625 33.144531 39.648438 33.078125 39.453125 C 32.96875 39.121094 33.214844 38.8125 33.527344 38.8125 C 35.152344 38.8125 36.472656 40.140625 36.472656 41.773438 C 36.472656 42.089844 36.167969 42.332031 35.835938 42.222656 " fill-opacity="1" fill-rule="nonzero"/><path fill="#b23614" d="M 33.527344 44.734375 C 31.90625 44.734375 30.589844 43.414062 30.582031 41.785156 C 30.582031 41.558594 30.738281 41.347656 30.964844 41.304688 C 31.269531 41.246094 31.53125 41.480469 31.53125 41.773438 C 31.53125 42.878906 32.421875 43.777344 33.519531 43.777344 C 33.761719 43.78125 33.972656 43.964844 34 44.203125 C 34.03125 44.492188 33.808594 44.734375 33.527344 44.734375 " fill-opacity="1" fill-rule="nonzero"/></svg>