<svg xmlns="http://www.w3.org/2000/svg" xmlns:xlink="http://www.w3.org/1999/xlink" width="70" zoomAndPan="magnify" viewBox="0 0 52.5 52.499999" height="70" preserveAspectRatio="xMidYMid meet" version="1.0"><defs><clipPath id="79d50ff080"><path d="M 8.496094 1.835938 L 43 1.835938 L 43 50.585938 L 8.496094 50.585938 Z M 8.496094 1.835938 " clip-rule="nonzero"/></clipPath><clipPath id="f088600705"><path d="M 8.496094 13 L 43 13 L 43 45 L 8.496094 45 Z M 8.496094 13 " clip-rule="nonzero"/></clipPath></defs><g clip-path="url(#79d50ff080)"><path fill="#f4eadc" d="M 39.125 21.960938 L 42.597656 19.890625 L 42.65625 19.917969 C 42.667969 19.921875 42.683594 19.925781 42.699219 19.925781 C 42.734375 19.925781 42.769531 19.90625 42.785156 19.871094 C 42.808594 19.820312 42.785156 19.761719 42.738281 19.742188 L 42.652344 19.699219 L 41.621094 16.800781 L 41.660156 16.777344 C 41.703125 16.746094 41.714844 16.683594 41.683594 16.640625 C 41.652344 16.597656 41.59375 16.585938 41.546875 16.617188 L 41.503906 16.648438 L 39.261719 15.589844 L 39.257812 15.535156 C 39.253906 15.496094 39.226562 15.460938 39.1875 15.449219 C 39.15625 15.429688 39.113281 15.429688 39.082031 15.453125 L 39.035156 15.484375 L 36.792969 14.429688 L 36.789062 14.371094 C 36.785156 14.320312 36.738281 14.28125 36.6875 14.285156 C 36.632812 14.289062 36.59375 14.335938 36.597656 14.390625 L 36.597656 14.414062 L 33.707031 15.480469 L 33.617188 15.441406 C 33.570312 15.417969 33.511719 15.4375 33.492188 15.488281 C 33.46875 15.535156 33.488281 15.59375 33.535156 15.617188 L 33.597656 15.644531 L 34.234375 19.65625 C 33.921875 20.328125 33.90625 21.066406 34.136719 21.71875 C 32.957031 21.390625 31.753906 21.265625 30.570312 21.328125 C 29.136719 16.710938 24.851562 13.359375 19.789062 13.359375 C 13.550781 13.359375 8.496094 18.449219 8.496094 24.722656 C 8.496094 30.996094 13.550781 36.082031 19.789062 36.082031 C 19.984375 36.082031 20.179688 36.078125 20.371094 36.070312 C 21.285156 39 23.371094 41.554688 26.355469 42.960938 C 32.003906 45.625 38.730469 43.175781 41.375 37.496094 C 43.746094 32.410156 42.042969 26.457031 37.609375 23.355469 C 38.253906 23.117188 38.808594 22.632812 39.125 21.960938 M 19.921875 33.9375 C 19.878906 33.9375 19.835938 33.9375 19.789062 33.9375 C 14.738281 33.9375 10.625 29.804688 10.625 24.722656 C 10.625 19.640625 14.738281 15.503906 19.789062 15.503906 C 23.773438 15.503906 27.167969 18.074219 28.429688 21.648438 C 25.242188 22.445312 22.425781 24.625 20.921875 27.851562 C 20.003906 29.820312 19.699219 31.921875 19.921875 33.9375 Z M 22.851562 28.761719 C 24.0625 26.164062 26.332031 24.398438 28.902344 23.742188 C 28.933594 24.066406 28.953125 24.390625 28.953125 24.722656 C 28.953125 29.023438 26.007812 32.644531 22.042969 33.65625 C 21.863281 32.035156 22.113281 30.34375 22.851562 28.761719 Z M 39.445312 36.585938 C 37.300781 41.1875 31.835938 43.175781 27.261719 41.019531 C 24.953125 39.929688 23.308594 37.992188 22.515625 35.75 C 27.4375 34.523438 31.085938 30.050781 31.085938 24.722656 C 31.085938 24.296875 31.058594 23.875 31.015625 23.457031 C 32.363281 23.4375 33.738281 23.714844 35.039062 24.328125 C 39.613281 26.484375 41.589844 31.984375 39.445312 36.585938 Z M 30.632812 11.570312 L 32.972656 12.011719 L 30.632812 12.453125 L 30.195312 14.804688 L 29.757812 12.453125 L 27.417969 12.011719 L 29.757812 11.570312 L 30.195312 9.21875 Z M 34.382812 6.964844 L 30.726562 6.277344 L 34.382812 5.589844 L 35.066406 1.910156 L 35.75 5.589844 L 39.40625 6.277344 L 35.75 6.964844 L 35.066406 10.644531 Z M 14.050781 41.242188 L 11.710938 41.683594 L 11.273438 44.039062 L 10.835938 41.683594 L 8.496094 41.242188 L 10.835938 40.804688 L 11.273438 38.449219 L 11.710938 40.804688 Z M 17.660156 45.453125 L 21.316406 46.144531 L 17.660156 46.832031 L 16.972656 50.507812 L 16.289062 46.832031 L 12.632812 46.144531 L 16.289062 45.453125 L 16.972656 41.777344 Z M 17.660156 45.453125 " fill-opacity="1" fill-rule="nonzero"/></g><g clip-path="url(#f088600705)"><path fill="#d59f35" d="M 37.609375 23.355469 C 38.253906 23.117188 38.808594 22.632812 39.125 21.960938 L 37.597656 21.242188 L 37.589844 21.25 C 37.570312 21.28125 37.539062 21.296875 37.507812 21.296875 C 37.492188 21.296875 37.472656 21.292969 37.457031 21.28125 C 37.414062 21.253906 37.402344 21.203125 37.421875 21.160156 L 35.9375 20.457031 C 35.921875 20.492188 35.886719 20.515625 35.851562 20.515625 C 35.839844 20.515625 35.832031 20.511719 35.820312 20.507812 C 35.769531 20.492188 35.742188 20.4375 35.757812 20.386719 L 35.761719 20.375 L 35.386719 20.199219 L 34.234375 19.65625 C 33.921875 20.328125 33.90625 21.066406 34.136719 21.71875 C 32.957031 21.390625 31.753906 21.265625 30.570312 21.328125 C 29.136719 16.710938 24.851562 13.359375 19.789062 13.359375 C 13.550781 13.359375 8.496094 18.449219 8.496094 24.722656 C 8.496094 30.996094 13.550781 36.082031 19.789062 36.082031 C 19.984375 36.082031 20.179688 36.078125 20.371094 36.070312 C 21.285156 39 23.371094 41.554688 26.355469 42.960938 C 32.003906 45.625 38.730469 43.175781 41.375 37.496094 C 43.746094 32.410156 42.042969 26.457031 37.609375 23.355469 Z M 19.921875 33.9375 C 19.878906 33.9375 19.835938 33.9375 19.789062 33.9375 C 14.738281 33.9375 10.625 29.804688 10.625 24.722656 C 10.625 19.640625 14.738281 15.503906 19.789062 15.503906 C 23.773438 15.503906 27.167969 18.074219 28.429688 21.648438 C 25.242188 22.445312 22.425781 24.625 20.921875 27.851562 C 20.003906 29.820312 19.699219 31.921875 19.921875 33.9375 Z M 22.851562 28.761719 C 24.0625 26.164062 26.332031 24.398438 28.902344 23.742188 C 28.933594 24.066406 28.953125 24.390625 28.953125 24.722656 C 28.953125 29.023438 26.007812 32.644531 22.042969 33.65625 C 21.863281 32.035156 22.113281 30.34375 22.851562 28.761719 Z M 39.445312 36.585938 C 37.300781 41.1875 31.835938 43.175781 27.261719 41.019531 C 24.953125 39.929688 23.308594 37.992188 22.515625 35.75 C 27.4375 34.523438 31.085938 30.050781 31.085938 24.722656 C 31.085938 24.296875 31.058594 23.875 31.015625 23.457031 C 32.363281 23.4375 33.738281 23.714844 35.039062 24.328125 C 39.613281 26.484375 41.589844 31.984375 39.445312 36.585938 Z M 39.445312 36.585938 " fill-opacity="1" fill-rule="nonzero"/></g><path fill="#dd855f" d="M 42.738281 19.742188 L 42.652344 19.699219 L 39.574219 18.25 L 41.621094 16.800781 L 41.660156 16.777344 C 41.703125 16.746094 41.714844 16.683594 41.683594 16.640625 C 41.652344 16.597656 41.59375 16.585938 41.546875 16.617188 L 41.503906 16.648438 L 39.464844 18.089844 L 39.261719 15.589844 L 39.257812 15.535156 C 39.253906 15.496094 39.226562 15.460938 39.1875 15.449219 C 39.15625 15.429688 39.113281 15.429688 39.082031 15.453125 L 39.035156 15.484375 L 37 16.925781 L 36.792969 14.429688 L 36.789062 14.371094 C 36.785156 14.320312 36.738281 14.28125 36.6875 14.285156 C 36.632812 14.289062 36.59375 14.335938 36.597656 14.390625 L 36.597656 14.414062 L 36.804688 16.941406 L 33.707031 15.480469 L 33.621094 15.441406 C 33.570312 15.417969 33.511719 15.4375 33.492188 15.488281 C 33.46875 15.535156 33.488281 15.59375 33.535156 15.617188 L 33.597656 15.644531 L 36.777344 17.144531 L 35.761719 20.375 L 35.757812 20.386719 C 35.742188 20.4375 35.769531 20.492188 35.820312 20.507812 C 35.832031 20.511719 35.839844 20.515625 35.851562 20.515625 C 35.886719 20.515625 35.921875 20.492188 35.9375 20.457031 C 35.9375 20.453125 35.941406 20.449219 35.941406 20.445312 L 36.953125 17.226562 L 39.242188 18.304688 L 37.425781 21.144531 C 37.425781 21.148438 37.425781 21.152344 37.421875 21.15625 C 37.402344 21.203125 37.414062 21.253906 37.457031 21.28125 C 37.472656 21.289062 37.492188 21.296875 37.507812 21.296875 C 37.539062 21.296875 37.570312 21.28125 37.589844 21.25 L 37.597656 21.242188 L 39.417969 18.390625 L 42.597656 19.890625 L 42.65625 19.917969 C 42.667969 19.921875 42.683594 19.925781 42.699219 19.925781 C 42.734375 19.925781 42.769531 19.90625 42.785156 19.871094 C 42.808594 19.820312 42.785156 19.761719 42.738281 19.742188 Z M 37.109375 17.085938 L 39.074219 15.695312 L 39.273438 18.105469 Z M 37.109375 17.085938 " fill-opacity="1" fill-rule="nonzero"/></svg>