<svg xmlns="http://www.w3.org/2000/svg" xmlns:xlink="http://www.w3.org/1999/xlink" width="70" zoomAndPan="magnify" viewBox="0 0 52.5 52.499999" height="70" preserveAspectRatio="xMidYMid meet" version="1.0"><defs><clipPath id="69bc92261f"><path d="M 25 7 L 41.84375 7 L 41.84375 47 L 25 47 Z M 25 7 " clip-rule="nonzero"/></clipPath><clipPath id="c77cb59107"><path d="M 10.34375 11 L 27 11 L 27 50.242188 L 10.34375 50.242188 Z M 10.34375 11 " clip-rule="nonzero"/></clipPath><clipPath id="6e81317275"><path d="M 22 2.242188 L 29 2.242188 L 29 10 L 22 10 Z M 22 2.242188 " clip-rule="nonzero"/></clipPath></defs><g clip-path="url(#69bc92261f)"><path fill="#f4eadc" d="M 38.3125 43.210938 C 37.828125 43.167969 37.230469 42.820312 37.070312 41.894531 L 35.015625 30.925781 C 35.695312 30.292969 36.703125 29.246094 37.308594 28.109375 C 37.632812 27.570312 37.816406 26.988281 37.820312 26.398438 C 37.824219 26.296875 37.820312 26.195312 37.808594 26.09375 C 37.804688 26.03125 37.796875 25.96875 37.785156 25.902344 C 37.484375 24.085938 32.847656 9.492188 32.398438 8.082031 C 32.417969 8.054688 32.433594 8.035156 32.4375 8.03125 C 32.472656 7.988281 32.464844 7.925781 32.425781 7.894531 C 32.382812 7.859375 32.324219 7.867188 32.289062 7.910156 C 32.289062 7.910156 32.257812 7.945312 32.210938 8.003906 L 29.171875 8.703125 L 29.085938 8.722656 L 26.054688 9.417969 C 25.984375 9.386719 25.941406 9.367188 25.941406 9.363281 C 25.890625 9.34375 25.835938 9.363281 25.8125 9.410156 C 25.789062 9.457031 25.808594 9.515625 25.855469 9.539062 C 25.863281 9.542969 25.882812 9.550781 25.910156 9.5625 C 26.105469 11.015625 28.171875 26.21875 28.679688 27.992188 C 28.699219 28.054688 28.71875 28.113281 28.738281 28.171875 C 28.773438 28.269531 28.8125 28.363281 28.859375 28.453125 C 29.117188 28.980469 29.53125 29.429688 30.054688 29.773438 C 31.09375 30.539062 32.464844 31.046875 33.34375 31.320312 L 36.1875 42.097656 C 36.382812 42.816406 36.179688 43.328125 35.875 43.632812 C 34.675781 44.300781 32.683594 45.542969 32.753906 46.40625 L 41.84375 44.320312 C 41.574219 43.597656 39.6875 43.320312 38.3125 43.210938 Z M 38.3125 43.210938 " fill-opacity="1" fill-rule="nonzero"/></g><g clip-path="url(#c77cb59107)"><path fill="#f4eadc" d="M 26.375 13.242188 C 26.355469 13.191406 26.296875 13.171875 26.25 13.195312 C 26.246094 13.195312 26.207031 13.214844 26.136719 13.246094 L 23.105469 12.550781 L 23.015625 12.53125 L 19.980469 11.835938 C 19.953125 11.800781 19.902344 11.742188 19.898438 11.738281 C 19.867188 11.699219 19.804688 11.691406 19.765625 11.722656 C 19.722656 11.757812 19.71875 11.816406 19.75 11.859375 C 19.753906 11.867188 19.769531 11.882812 19.792969 11.910156 C 19.78125 11.941406 19.769531 11.980469 19.757812 12.023438 C 19.144531 13.953125 14.699219 27.953125 14.40625 29.734375 C 14.394531 29.796875 14.386719 29.859375 14.378906 29.925781 C 14.371094 30.023438 14.367188 30.125 14.367188 30.230469 C 14.375 30.816406 14.554688 31.402344 14.878906 31.941406 C 15.484375 33.074219 16.496094 34.125 17.171875 34.753906 L 15.121094 45.726562 C 14.957031 46.648438 14.363281 47 13.878906 47.042969 C 12.503906 47.148438 10.617188 47.425781 10.34375 48.152344 L 19.433594 50.234375 C 19.507812 49.371094 17.515625 48.128906 16.3125 47.460938 C 16.011719 47.15625 15.804688 46.648438 16.003906 45.925781 L 18.84375 35.148438 C 19.726562 34.875 21.097656 34.371094 22.136719 33.605469 C 22.660156 33.257812 23.074219 32.8125 23.332031 32.285156 C 23.375 32.191406 23.417969 32.097656 23.449219 32.003906 C 23.472656 31.945312 23.492188 31.882812 23.507812 31.820312 C 23.996094 30.121094 25.914062 16.074219 26.246094 13.644531 L 26.246094 13.640625 C 26.257812 13.539062 26.269531 13.453125 26.277344 13.394531 C 26.308594 13.378906 26.324219 13.371094 26.332031 13.367188 C 26.378906 13.347656 26.398438 13.289062 26.375 13.242188 Z M 26.375 13.242188 " fill-opacity="1" fill-rule="nonzero"/></g><path fill="#e4c2b9" d="M 22.929688 19.050781 C 21.167969 19.097656 18.738281 17.632812 18.535156 17.507812 C 16.320312 24.574219 15.027344 28.9375 14.882812 29.816406 C 14.875 29.867188 14.867188 29.917969 14.859375 29.980469 C 14.851562 30.058594 14.847656 30.140625 14.851562 30.230469 C 14.855469 30.722656 15.011719 31.230469 15.296875 31.710938 L 15.304688 31.71875 L 15.308594 31.730469 C 15.875 32.789062 16.816406 33.78125 17.515625 34.429688 C 17.667969 34.578125 17.878906 34.6875 18.101562 34.738281 C 18.320312 34.789062 18.542969 34.78125 18.742188 34.71875 C 19.648438 34.4375 20.929688 33.953125 21.898438 33.242188 L 21.90625 33.234375 L 21.917969 33.226562 C 22.378906 32.921875 22.738281 32.527344 22.953125 32.085938 C 22.992188 32.007812 23.027344 31.933594 23.054688 31.851562 C 23.074219 31.800781 23.089844 31.75 23.101562 31.699219 C 23.347656 30.847656 24.261719 24.867188 25.289062 17.550781 C 25.15625 17.808594 24.445312 19.011719 22.929688 19.050781 Z M 17.035156 28.207031 C 16.757812 28.207031 16.757812 27.773438 17.035156 27.773438 C 17.308594 27.773438 17.308594 28.207031 17.035156 28.207031 Z M 17.289062 27.234375 C 17.011719 27.234375 17.011719 26.800781 17.289062 26.800781 C 17.566406 26.800781 17.566406 27.234375 17.289062 27.234375 Z M 17.785156 25.113281 C 17.507812 25.113281 17.507812 24.679688 17.785156 24.679688 C 18.0625 24.679688 18.0625 25.113281 17.785156 25.113281 Z M 18.433594 31.234375 C 18.15625 31.234375 18.15625 30.800781 18.433594 30.800781 C 18.710938 30.800781 18.710938 31.234375 18.433594 31.234375 Z M 18.65625 30.441406 C 18.378906 30.441406 18.378906 30.007812 18.65625 30.007812 C 18.933594 30.007812 18.933594 30.441406 18.65625 30.441406 Z M 23.179688 23 L 21.152344 32.136719 C 21.140625 32.179688 21.101562 32.210938 21.058594 32.210938 C 21.050781 32.210938 21.046875 32.210938 21.039062 32.207031 C 20.988281 32.195312 20.953125 32.144531 20.964844 32.09375 L 22.992188 22.960938 C 23.003906 22.90625 23.054688 22.875 23.105469 22.886719 C 23.160156 22.898438 23.191406 22.949219 23.179688 23 Z M 25.296875 17.5 C 25.296875 17.5 25.296875 17.503906 25.296875 17.503906 L 21.910156 17.5 Z M 36.878906 27.898438 L 36.886719 27.890625 L 36.890625 27.878906 C 37.179688 27.402344 37.332031 26.890625 37.339844 26.402344 C 37.339844 26.3125 37.335938 26.226562 37.328125 26.152344 C 37.324219 26.089844 37.316406 26.035156 37.308594 25.984375 C 37.164062 25.109375 35.867188 20.742188 33.65625 13.675781 C 33.453125 13.800781 31.019531 15.265625 29.261719 15.222656 C 27.746094 15.179688 27.035156 13.980469 26.898438 13.722656 C 27.925781 21.039062 28.84375 27.019531 29.085938 27.871094 C 29.101562 27.917969 29.117188 27.96875 29.136719 28.023438 C 29.164062 28.101562 29.195312 28.179688 29.234375 28.253906 C 29.449219 28.699219 29.808594 29.09375 30.273438 29.398438 L 30.28125 29.402344 L 30.289062 29.410156 C 31.261719 30.125 32.542969 30.609375 33.449219 30.886719 C 33.644531 30.953125 33.871094 30.960938 34.085938 30.910156 C 34.3125 30.859375 34.519531 30.75 34.675781 30.601562 C 35.371094 29.949219 36.316406 28.960938 36.878906 27.898438 Z M 29.414062 21.136719 C 29.136719 21.136719 29.140625 20.703125 29.414062 20.703125 C 29.691406 20.703125 29.691406 21.136719 29.414062 21.136719 Z M 29.894531 22.894531 C 30.167969 22.894531 30.167969 23.328125 29.894531 23.328125 C 29.617188 23.328125 29.617188 22.894531 29.894531 22.894531 Z M 30.085938 24.347656 C 29.8125 24.347656 29.8125 23.914062 30.085938 23.914062 C 30.363281 23.914062 30.363281 24.347656 30.085938 24.347656 Z M 32.574219 25.261719 C 32.851562 25.261719 32.847656 25.695312 32.574219 25.695312 C 32.296875 25.695312 32.296875 25.261719 32.574219 25.261719 Z M 32.71875 26.53125 C 32.441406 26.53125 32.441406 26.097656 32.71875 26.097656 C 32.996094 26.097656 32.996094 26.53125 32.71875 26.53125 Z M 33.371094 16.789062 C 33.359375 16.734375 33.390625 16.683594 33.445312 16.671875 C 33.496094 16.660156 33.546875 16.691406 33.558594 16.746094 L 35.722656 26.132812 C 35.734375 26.1875 35.699219 26.238281 35.648438 26.25 C 35.640625 26.25 35.636719 26.253906 35.628906 26.253906 C 35.585938 26.253906 35.546875 26.222656 35.535156 26.179688 Z M 30.28125 13.671875 L 26.894531 13.671875 C 26.894531 13.671875 26.894531 13.671875 26.894531 13.667969 Z M 30.28125 13.671875 " fill-opacity="1" fill-rule="nonzero"/><path fill="#dd855f" d="M 21.910156 17.5 L 25.296875 17.503906 L 25.3125 17.503906 C 25.3125 17.503906 25.304688 17.523438 25.289062 17.550781 C 25.15625 17.808594 24.445312 19.011719 22.929688 19.050781 C 21.167969 19.097656 18.738281 17.632812 18.535156 17.507812 C 18.523438 17.5 18.519531 17.496094 18.519531 17.496094 Z M 26.25 13.195312 C 26.246094 13.195312 26.207031 13.214844 26.136719 13.246094 C 25.707031 13.433594 24.144531 14.046875 22.789062 13.734375 C 21.4375 13.425781 20.285156 12.1875 19.980469 11.835938 C 19.929688 11.777344 19.902344 11.742188 19.898438 11.738281 C 19.867188 11.699219 19.804688 11.691406 19.765625 11.722656 C 19.722656 11.757812 19.71875 11.816406 19.75 11.859375 C 19.753906 11.867188 19.769531 11.882812 19.792969 11.910156 C 20.03125 12.195312 21.246094 13.578125 22.746094 13.921875 C 23.03125 13.988281 23.324219 14.015625 23.613281 14.015625 C 24.847656 14.015625 26.015625 13.515625 26.277344 13.394531 C 26.308594 13.378906 26.324219 13.371094 26.332031 13.367188 C 26.378906 13.347656 26.398438 13.289062 26.375 13.242188 C 26.355469 13.191406 26.296875 13.171875 26.25 13.195312 Z M 29.261719 15.222656 C 31.019531 15.269531 33.453125 13.800781 33.65625 13.675781 C 33.664062 13.671875 33.671875 13.667969 33.671875 13.667969 L 30.28125 13.671875 L 26.875 13.671875 C 26.875 13.671875 26.882812 13.691406 26.898438 13.722656 C 27.035156 13.980469 27.746094 15.179688 29.261719 15.222656 Z M 29.441406 10.09375 C 30.945312 9.75 32.160156 8.367188 32.398438 8.082031 C 32.417969 8.054688 32.433594 8.035156 32.4375 8.03125 C 32.472656 7.988281 32.464844 7.925781 32.425781 7.894531 C 32.382812 7.859375 32.324219 7.867188 32.289062 7.910156 C 32.289062 7.910156 32.257812 7.945312 32.210938 8.003906 C 31.902344 8.359375 30.753906 9.59375 29.398438 9.90625 C 28.046875 10.214844 26.480469 9.601562 26.054688 9.417969 C 25.984375 9.386719 25.941406 9.367188 25.941406 9.363281 C 25.890625 9.34375 25.835938 9.363281 25.8125 9.410156 C 25.789062 9.457031 25.808594 9.515625 25.855469 9.539062 C 25.863281 9.542969 25.882812 9.550781 25.910156 9.5625 C 26.175781 9.683594 27.339844 10.183594 28.578125 10.183594 C 28.867188 10.183594 29.15625 10.15625 29.441406 10.09375 Z M 29.441406 10.09375 " fill-opacity="1" fill-rule="nonzero"/><g clip-path="url(#6e81317275)"><path fill="#e2b96a" d="M 23.5 8.21875 L 22.179688 7.96875 L 23.5 7.71875 L 23.746094 6.386719 L 23.996094 7.71875 L 25.3125 7.96875 L 23.996094 8.21875 L 23.746094 9.550781 Z M 26.496094 7.195312 L 26.878906 5.113281 L 28.941406 4.722656 L 26.878906 4.335938 L 26.496094 2.253906 L 26.109375 4.335938 L 24.046875 4.722656 L 26.109375 5.113281 Z M 26.496094 7.195312 " fill-opacity="1" fill-rule="nonzero"/></g></svg>