<svg xmlns="http://www.w3.org/2000/svg" xmlns:xlink="http://www.w3.org/1999/xlink" width="70" zoomAndPan="magnify" viewBox="0 0 52.5 52.499999" height="70" preserveAspectRatio="xMidYMid meet" version="1.0"><defs><clipPath id="fb00840c84"><path d="M 25 23 L 47 23 L 47 47.300781 L 25 47.300781 Z M 25 23 " clip-rule="nonzero"/></clipPath><clipPath id="17e7e61a92"><path d="M 16 8 L 36 8 L 36 47.300781 L 16 47.300781 Z M 16 8 " clip-rule="nonzero"/></clipPath><clipPath id="3c1301e1d2"><path d="M 5 23 L 24 23 L 24 47.300781 L 5 47.300781 Z M 5 23 " clip-rule="nonzero"/></clipPath><clipPath id="b596ac6bdd"><path d="M 25 2.300781 L 27 2.300781 L 27 10 L 25 10 Z M 25 2.300781 " clip-rule="nonzero"/></clipPath><clipPath id="e9bd8d11d5"><path d="M 1.550781 22 L 17 22 L 17 30 L 1.550781 30 Z M 1.550781 22 " clip-rule="nonzero"/></clipPath><clipPath id="1ca9db923e"><path d="M 35 22 L 51.050781 22 L 51.050781 30 L 35 30 Z M 35 22 " clip-rule="nonzero"/></clipPath><clipPath id="95720aeb07"><path d="M 21 31 L 32 31 L 32 47.300781 L 21 47.300781 Z M 21 31 " clip-rule="nonzero"/></clipPath><clipPath id="a413798f0b"><path d="M 20 30 L 32 30 L 32 47.300781 L 20 47.300781 Z M 20 30 " clip-rule="nonzero"/></clipPath></defs><g clip-path="url(#fb00840c84)"><path fill="#f4eadc" d="M 46.839844 27.671875 L 46.753906 27.890625 L 46.753906 47.300781 L 25.820312 47.300781 L 35.917969 23.453125 Z M 46.839844 27.671875 " fill-opacity="1" fill-rule="nonzero"/></g><g clip-path="url(#17e7e61a92)"><path fill="#f4eadc" d="M 35.917969 23.453125 L 35.917969 47.300781 L 16.6875 47.300781 L 16.6875 13.699219 L 26.304688 8.78125 L 35.917969 13.699219 Z M 35.917969 23.453125 " fill-opacity="1" fill-rule="nonzero"/></g><path fill="#f4eadc" d="M 26.304688 8.78125 L 16.6875 13.699219 L 16.6875 16.160156 L 26.304688 11.242188 L 35.917969 16.160156 L 35.917969 13.699219 Z M 26.304688 8.78125 " fill-opacity="1" fill-rule="nonzero"/><g clip-path="url(#3c1301e1d2)"><path fill="#f4eadc" d="M 16.6875 23.496094 L 23.804688 47.300781 L 5.851562 47.300781 L 5.851562 27.957031 L 5.769531 27.742188 Z M 16.6875 23.496094 " fill-opacity="1" fill-rule="nonzero"/></g><path fill="#f4eadc" d="M 46.839844 27.671875 L 46.753906 27.890625 L 46.753906 29.996094 L 35.917969 25.808594 L 35.917969 23.453125 Z M 46.839844 27.671875 " fill-opacity="1" fill-rule="nonzero"/><path fill="#f4eadc" d="M 16.6875 23.496094 L 16.6875 25.851562 L 5.851562 30.0625 L 5.851562 27.957031 L 5.769531 27.742188 Z M 16.6875 23.496094 " fill-opacity="1" fill-rule="nonzero"/><g clip-path="url(#b596ac6bdd)"><path fill="#e2b96a" d="M 25.875 2.308594 L 26.730469 2.308594 L 26.730469 9.207031 L 25.875 9.207031 Z M 25.875 2.308594 " fill-opacity="1" fill-rule="nonzero"/></g><path fill="#e2b96a" d="M 23.910156 4.359375 L 28.695312 4.359375 L 28.695312 5.214844 L 23.910156 5.214844 Z M 23.910156 4.359375 " fill-opacity="1" fill-rule="nonzero"/><path fill="#e2b96a" d="M 40.40625 16.894531 L 26.304688 9.683594 L 12.199219 16.894531 L 11.46875 15.464844 L 26.304688 7.878906 L 41.140625 15.464844 Z M 40.40625 16.894531 " fill-opacity="1" fill-rule="nonzero"/><g clip-path="url(#e9bd8d11d5)"><path fill="#e2b96a" d="M 16.6875 22.558594 L 16.6875 24.285156 L 2.136719 29.941406 L 1.550781 28.441406 Z M 16.6875 22.558594 " fill-opacity="1" fill-rule="nonzero"/></g><g clip-path="url(#1ca9db923e)"><path fill="#e2b96a" d="M 51.050781 28.441406 L 50.472656 29.941406 L 35.917969 24.316406 L 35.917969 22.59375 Z M 51.050781 28.441406 " fill-opacity="1" fill-rule="nonzero"/></g><g clip-path="url(#95720aeb07)"><path fill="#e4c2b9" d="M 26.304688 31.179688 C 23.605469 31.179688 21.414062 33.367188 21.414062 36.066406 L 21.414062 47.300781 L 31.191406 47.300781 L 31.191406 36.066406 C 31.191406 33.367188 29.003906 31.179688 26.304688 31.179688 Z M 26.304688 31.179688 " fill-opacity="1" fill-rule="nonzero"/></g><path fill="#dd855f" d="M 41.214844 31.085938 C 40.113281 31.085938 39.21875 31.980469 39.21875 33.082031 L 39.21875 37.667969 L 43.210938 37.667969 L 43.210938 33.082031 C 43.210938 31.980469 42.316406 31.085938 41.214844 31.085938 Z M 41.214844 31.085938 " fill-opacity="1" fill-rule="nonzero"/><path fill="#dd855f" d="M 11.394531 31.085938 C 10.289062 31.085938 9.398438 31.980469 9.398438 33.082031 L 9.398438 37.667969 L 13.390625 37.667969 L 13.390625 33.082031 C 13.390625 31.980469 12.496094 31.085938 11.394531 31.085938 Z M 11.394531 31.085938 " fill-opacity="1" fill-rule="nonzero"/><path fill="#e2b96a" d="M 43.691406 38.152344 L 38.734375 38.152344 L 38.734375 33.082031 C 38.734375 31.714844 39.847656 30.605469 41.214844 30.605469 C 42.582031 30.605469 43.691406 31.714844 43.691406 33.082031 Z M 39.699219 37.1875 L 42.726562 37.1875 L 42.726562 33.082031 C 42.726562 32.246094 42.050781 31.570312 41.214844 31.570312 C 40.378906 31.570312 39.699219 32.246094 39.699219 33.082031 Z M 39.699219 37.1875 " fill-opacity="1" fill-rule="nonzero"/><path fill="#e2b96a" d="M 13.871094 38.152344 L 8.914062 38.152344 L 8.914062 33.082031 C 8.914062 31.714844 10.027344 30.605469 11.394531 30.605469 C 12.761719 30.605469 13.871094 31.714844 13.871094 33.082031 Z M 9.878906 37.1875 L 12.90625 37.1875 L 12.90625 33.082031 C 12.90625 32.246094 12.226562 31.570312 11.394531 31.570312 C 10.558594 31.570312 9.878906 32.246094 9.878906 33.082031 Z M 9.878906 37.1875 " fill-opacity="1" fill-rule="nonzero"/><path fill="#dd855f" d="M 30.492188 20.433594 C 30.492188 20.710938 30.464844 20.980469 30.414062 21.25 C 30.359375 21.519531 30.277344 21.78125 30.175781 22.035156 C 30.070312 22.289062 29.941406 22.53125 29.785156 22.761719 C 29.632812 22.988281 29.460938 23.199219 29.265625 23.394531 C 29.070312 23.589844 28.859375 23.761719 28.632812 23.914062 C 28.402344 24.066406 28.160156 24.195312 27.90625 24.300781 C 27.652344 24.40625 27.390625 24.488281 27.121094 24.539062 C 26.851562 24.59375 26.578125 24.621094 26.304688 24.621094 C 26.027344 24.621094 25.757812 24.59375 25.484375 24.539062 C 25.214844 24.488281 24.953125 24.40625 24.699219 24.300781 C 24.445312 24.195312 24.203125 24.066406 23.976562 23.914062 C 23.746094 23.761719 23.535156 23.589844 23.339844 23.394531 C 23.148438 23.199219 22.972656 22.988281 22.820312 22.761719 C 22.667969 22.53125 22.539062 22.289062 22.433594 22.035156 C 22.328125 21.78125 22.25 21.519531 22.195312 21.25 C 22.140625 20.980469 22.113281 20.710938 22.113281 20.433594 C 22.113281 20.160156 22.140625 19.886719 22.195312 19.617188 C 22.25 19.347656 22.328125 19.085938 22.433594 18.832031 C 22.539062 18.578125 22.667969 18.335938 22.820312 18.109375 C 22.972656 17.878906 23.148438 17.667969 23.339844 17.476562 C 23.535156 17.28125 23.746094 17.105469 23.976562 16.953125 C 24.203125 16.800781 24.445312 16.671875 24.699219 16.566406 C 24.953125 16.460938 25.214844 16.382812 25.484375 16.328125 C 25.757812 16.277344 26.027344 16.25 26.304688 16.25 C 26.578125 16.25 26.851562 16.277344 27.121094 16.328125 C 27.390625 16.382812 27.652344 16.460938 27.90625 16.566406 C 28.160156 16.671875 28.402344 16.800781 28.632812 16.953125 C 28.859375 17.105469 29.070312 17.28125 29.265625 17.476562 C 29.460938 17.667969 29.632812 17.878906 29.785156 18.109375 C 29.941406 18.335938 30.070312 18.578125 30.175781 18.832031 C 30.277344 19.085938 30.359375 19.347656 30.414062 19.617188 C 30.464844 19.886719 30.492188 20.160156 30.492188 20.433594 Z M 30.492188 20.433594 " fill-opacity="1" fill-rule="nonzero"/><path fill="#e2b96a" d="M 26.304688 15.820312 C 23.757812 15.820312 21.6875 17.890625 21.6875 20.433594 C 21.6875 22.976562 23.757812 25.046875 26.304688 25.046875 C 28.847656 25.046875 30.921875 22.976562 30.921875 20.433594 C 30.921875 17.890625 28.847656 15.820312 26.304688 15.820312 Z M 30.039062 20.007812 L 26.730469 20.007812 L 26.730469 16.699219 C 28.464844 16.898438 29.84375 18.277344 30.039062 20.007812 Z M 25.875 16.699219 L 25.875 20.007812 L 22.566406 20.007812 C 22.765625 18.277344 24.144531 16.898438 25.875 16.699219 Z M 22.566406 20.863281 L 25.875 20.863281 L 25.875 24.167969 C 24.144531 23.972656 22.765625 22.59375 22.566406 20.863281 Z M 26.730469 24.167969 L 26.730469 20.863281 L 30.039062 20.863281 C 29.84375 22.59375 28.464844 23.972656 26.730469 24.167969 Z M 26.730469 24.167969 " fill-opacity="1" fill-rule="nonzero"/><g clip-path="url(#a413798f0b)"><path fill="#e2b96a" d="M 26.304688 30.699219 C 23.34375 30.699219 20.933594 33.105469 20.933594 36.066406 L 20.933594 47.300781 L 21.898438 47.300781 L 21.898438 36.066406 C 21.898438 33.800781 23.617188 31.929688 25.820312 31.691406 L 25.820312 47.300781 L 26.785156 47.300781 L 26.785156 31.691406 C 28.988281 31.929688 30.710938 33.800781 30.710938 36.066406 L 30.710938 47.300781 L 31.675781 47.300781 L 31.675781 36.066406 C 31.675781 33.105469 29.265625 30.699219 26.304688 30.699219 Z M 26.304688 30.699219 " fill-opacity="1" fill-rule="nonzero"/></g></svg>