<svg xmlns="http://www.w3.org/2000/svg" xmlns:xlink="http://www.w3.org/1999/xlink" width="70" zoomAndPan="magnify" viewBox="0 0 52.5 52.499999" height="70" preserveAspectRatio="xMidYMid meet" version="1.0"><defs><clipPath id="73bc6fdf99"><path d="M 27 18 L 36.75 18 L 36.75 22 L 27 22 Z M 27 18 " clip-rule="nonzero"/></clipPath><clipPath id="5036a48a8c"><path d="M 24 17.167969 L 30 17.167969 L 30 22 L 24 22 Z M 24 17.167969 " clip-rule="nonzero"/></clipPath><clipPath id="5d4d1e12fd"><path d="M 17 33 L 19 33 L 19 35.167969 L 17 35.167969 Z M 17 33 " clip-rule="nonzero"/></clipPath><clipPath id="b01390b25c"><path d="M 26 21 L 36.75 21 L 36.75 33 L 26 33 Z M 26 21 " clip-rule="nonzero"/></clipPath><clipPath id="8cb3f798d1"><path d="M 24 17.167969 L 27 17.167969 L 27 22 L 24 22 Z M 24 17.167969 " clip-rule="nonzero"/></clipPath></defs><path fill="#ffe07d" d="M 17.050781 24.742188 C 16.992188 24.742188 16.964844 24.714844 16.960938 24.65625 C 16.960938 24.628906 16.84375 21.546875 19.277344 21.179688 C 19.296875 21.179688 19.320312 21.175781 19.339844 21.171875 C 19.449219 20.945312 19.589844 20.738281 19.757812 20.550781 C 20.335938 19.902344 21.746094 18.910156 24.730469 19.523438 C 24.789062 19.535156 24.8125 19.570312 24.800781 19.628906 C 24.789062 19.683594 24.753906 19.707031 24.695312 19.695312 C 21.800781 19.101562 20.445312 20.050781 19.894531 20.667969 C 19.761719 20.816406 19.648438 20.976562 19.550781 21.152344 C 20.226562 21.109375 20.753906 21.316406 21.019531 21.734375 C 21.132812 21.910156 21.183594 22.101562 21.183594 22.308594 C 21.179688 22.515625 21.121094 22.707031 21.007812 22.878906 C 20.882812 23.054688 20.714844 23.175781 20.511719 23.25 C 20.308594 23.320312 20.101562 23.328125 19.894531 23.273438 C 19.523438 23.199219 19.285156 22.984375 19.183594 22.625 C 19.058594 22.195312 19.082031 21.777344 19.257812 21.363281 C 17.027344 21.738281 17.140625 24.621094 17.140625 24.648438 C 17.144531 24.707031 17.117188 24.738281 17.054688 24.742188 Z M 19.460938 21.339844 C 19.269531 21.734375 19.234375 22.144531 19.351562 22.566406 C 19.433594 22.859375 19.625 23.035156 19.925781 23.097656 C 20.101562 23.144531 20.273438 23.140625 20.441406 23.082031 C 20.613281 23.023438 20.75 22.921875 20.859375 22.777344 C 21.066406 22.464844 21.070312 22.148438 20.867188 21.832031 C 20.625 21.449219 20.117188 21.273438 19.460938 21.339844 Z M 19.460938 21.339844 " fill-opacity="1" fill-rule="nonzero"/><g clip-path="url(#73bc6fdf99)"><path fill="#ffe07d" d="M 31.066406 21.117188 C 30.125 21.117188 28.769531 20.738281 27.183594 19.171875 C 27.140625 19.128906 27.140625 19.085938 27.183594 19.042969 C 27.226562 19 27.269531 19 27.308594 19.042969 C 29.402344 21.113281 31.0625 21.054688 31.863281 20.835938 C 32.058594 20.78125 32.242188 20.710938 32.417969 20.617188 C 31.828125 20.285156 31.503906 19.824219 31.511719 19.332031 C 31.515625 19.125 31.574219 18.933594 31.691406 18.761719 C 31.808594 18.589844 31.960938 18.464844 32.152344 18.378906 C 32.355469 18.304688 32.5625 18.289062 32.773438 18.339844 C 32.980469 18.390625 33.160156 18.496094 33.304688 18.65625 C 33.574219 18.917969 33.652344 19.226562 33.539062 19.582031 C 33.40625 20.007812 33.15625 20.347656 32.78125 20.597656 C 34.855469 21.492188 36.351562 19.019531 36.367188 18.996094 C 36.394531 18.941406 36.4375 18.929688 36.492188 18.960938 C 36.542969 18.992188 36.554688 19.035156 36.523438 19.085938 C 36.503906 19.113281 34.90625 21.753906 32.664062 20.742188 C 32.644531 20.734375 32.625 20.722656 32.605469 20.714844 C 32.390625 20.84375 32.15625 20.941406 31.914062 21.007812 C 31.636719 21.082031 31.351562 21.117188 31.066406 21.117188 Z M 32.515625 18.484375 C 32.414062 18.484375 32.316406 18.503906 32.222656 18.542969 C 31.875 18.695312 31.699219 18.957031 31.691406 19.332031 C 31.683594 19.785156 32.011719 20.207031 32.597656 20.507812 C 32.972656 20.28125 33.230469 19.957031 33.363281 19.539062 C 33.457031 19.25 33.394531 18.996094 33.179688 18.78125 C 32.996094 18.59375 32.777344 18.496094 32.515625 18.484375 Z M 32.515625 18.484375 " fill-opacity="1" fill-rule="nonzero"/></g><g clip-path="url(#5036a48a8c)"><path fill="#e27b84" d="M 26.59375 21.480469 L 26.589844 21.476562 C 25.386719 20.53125 23.628906 19.953125 24.164062 18.277344 C 24.480469 17.398438 25.5625 17.339844 26.199219 17.960938 C 26.386719 18.144531 26.515625 18.359375 26.59375 18.605469 C 26.992188 17.363281 28.621094 17.164062 29.023438 18.277344 C 29.554688 19.953125 27.796875 20.535156 26.59375 21.480469 Z M 26.59375 21.480469 " fill-opacity="1" fill-rule="nonzero"/></g><g clip-path="url(#5d4d1e12fd)"><path fill="#ffe07d" d="M 17.3125 35.160156 C 17.261719 35.160156 17.230469 35.136719 17.222656 35.085938 C 17.195312 34.894531 17.230469 34.714844 17.332031 34.546875 C 17.429688 34.378906 17.574219 34.257812 17.757812 34.191406 C 17.8125 33.855469 18.074219 33.476562 18.683594 33.253906 C 18.738281 33.234375 18.777344 33.253906 18.796875 33.308594 C 18.816406 33.363281 18.800781 33.402344 18.742188 33.421875 C 18.261719 33.597656 18.027344 33.875 17.953125 34.136719 C 18.3125 34.070312 18.480469 34.207031 18.550781 34.292969 C 18.652344 34.429688 18.667969 34.574219 18.59375 34.726562 C 18.515625 34.878906 18.394531 34.953125 18.222656 34.949219 C 18.097656 34.933594 17.992188 34.882812 17.902344 34.792969 C 17.816406 34.707031 17.769531 34.597656 17.757812 34.476562 C 17.753906 34.445312 17.75 34.417969 17.75 34.390625 C 17.472656 34.53125 17.355469 34.753906 17.402344 35.058594 C 17.410156 35.117188 17.386719 35.152344 17.328125 35.160156 C 17.320312 35.160156 17.316406 35.160156 17.3125 35.160156 Z M 17.925781 34.324219 C 17.925781 34.363281 17.929688 34.40625 17.9375 34.445312 C 17.96875 34.636719 18.089844 34.769531 18.222656 34.769531 C 18.320312 34.773438 18.386719 34.734375 18.429688 34.648438 C 18.472656 34.5625 18.464844 34.480469 18.40625 34.402344 C 18.277344 34.285156 18.132812 34.253906 17.964844 34.316406 C 17.953125 34.320312 17.9375 34.320312 17.925781 34.324219 Z M 17.925781 34.324219 " fill-opacity="1" fill-rule="nonzero"/></g><path fill="#ffe07d" d="M 34.039062 34.648438 C 33.984375 34.648438 33.957031 34.621094 33.949219 34.570312 C 33.945312 34.515625 33.964844 34.484375 34.019531 34.472656 C 34.523438 34.359375 34.785156 34.109375 34.890625 33.859375 C 34.527344 33.882812 34.378906 33.726562 34.320312 33.632812 C 34.234375 33.484375 34.238281 33.339844 34.332031 33.199219 C 34.425781 33.054688 34.558594 32.996094 34.726562 33.023438 C 34.847656 33.050781 34.949219 33.113281 35.023438 33.214844 C 35.097656 33.3125 35.132812 33.425781 35.128906 33.546875 C 35.128906 33.578125 35.128906 33.605469 35.128906 33.636719 C 35.421875 33.53125 35.5625 33.324219 35.554688 33.011719 C 35.554688 32.953125 35.582031 32.921875 35.644531 32.921875 C 35.703125 32.921875 35.730469 32.949219 35.734375 33.007812 C 35.742188 33.203125 35.683594 33.378906 35.5625 33.53125 C 35.441406 33.6875 35.285156 33.785156 35.09375 33.832031 C 34.996094 34.160156 34.691406 34.503906 34.058594 34.648438 C 34.050781 34.648438 34.046875 34.648438 34.039062 34.648438 Z M 34.671875 33.199219 C 34.589844 33.195312 34.527344 33.226562 34.480469 33.296875 C 34.429688 33.375 34.425781 33.457031 34.476562 33.539062 C 34.589844 33.675781 34.730469 33.722656 34.902344 33.679688 C 34.914062 33.679688 34.929688 33.679688 34.941406 33.675781 C 34.949219 33.636719 34.949219 33.597656 34.949219 33.558594 C 34.9375 33.363281 34.839844 33.214844 34.703125 33.199219 C 34.691406 33.199219 34.679688 33.199219 34.671875 33.199219 Z M 34.671875 33.199219 " fill-opacity="1" fill-rule="nonzero"/><path fill="#f0ae34" d="M 21.601562 30.917969 L 21.484375 31.089844 L 21.039062 31.746094 C 20.945312 31.882812 20.832031 32 20.691406 32.089844 C 20.554688 32.183594 20.402344 32.242188 20.242188 32.277344 C 20.078125 32.308594 19.914062 32.308594 19.753906 32.277344 C 19.589844 32.242188 19.4375 32.179688 19.300781 32.089844 C 19.207031 32.027344 19.121094 31.949219 19.046875 31.863281 C 18.863281 31.652344 18.761719 31.410156 18.746094 31.128906 C 18.730469 30.851562 18.800781 30.597656 18.957031 30.367188 L 19.515625 29.535156 Z M 21.601562 30.917969 " fill-opacity="1" fill-rule="nonzero"/><path fill="#cf962c" d="M 21.601562 30.917969 L 21.484375 31.089844 C 21.378906 31.085938 21.273438 31.078125 21.171875 31.0625 C 19.894531 30.535156 18.988281 31.292969 19.046875 31.863281 C 18.863281 31.652344 18.761719 31.410156 18.746094 31.128906 C 18.730469 30.851562 18.800781 30.597656 18.957031 30.367188 L 19.515625 29.535156 Z M 21.601562 30.917969 " fill-opacity="1" fill-rule="nonzero"/><path fill="#ffc250" d="M 25.96875 28.15625 C 25.824219 28.492188 25.664062 28.824219 25.5 29.144531 C 24.808594 30.523438 24.085938 31.671875 24.230469 32.0625 C 24.597656 33.042969 24.039062 33.277344 24.039062 33.277344 C 21.75 32.339844 19.667969 31.074219 17.789062 29.476562 C 17.324219 29.085938 16.867188 28.667969 16.429688 28.230469 C 16.429688 28.230469 16.433594 27.628906 17.488281 27.589844 C 17.914062 27.574219 18.730469 26.445312 19.769531 25.265625 C 20.007812 24.996094 20.257812 24.722656 20.515625 24.460938 C 21.9375 23.027344 23.597656 21.898438 25.371094 23.132812 C 25.570312 23.273438 25.75 23.429688 25.914062 23.609375 C 27.035156 24.839844 26.683594 26.515625 25.96875 28.15625 Z M 25.96875 28.15625 " fill-opacity="1" fill-rule="nonzero"/><path fill="#ffe07d" d="M 25.96875 28.15625 C 25.824219 28.492188 25.664062 28.824219 25.5 29.144531 C 24.445312 28.710938 23.4375 28.179688 22.484375 27.550781 C 21.875 27.148438 21.296875 26.707031 20.75 26.222656 C 20.40625 25.917969 20.082031 25.597656 19.769531 25.265625 C 20.007812 24.996094 20.257812 24.722656 20.515625 24.460938 C 20.863281 24.832031 21.230469 25.183594 21.613281 25.519531 C 22.921875 26.632812 24.371094 27.511719 25.96875 28.15625 Z M 25.96875 28.15625 " fill-opacity="1" fill-rule="nonzero"/><path fill="#f2b038" d="M 25.914062 23.609375 C 22.167969 24.0625 19.03125 27.792969 17.789062 29.476562 C 17.324219 29.085938 16.867188 28.667969 16.429688 28.230469 C 16.429688 28.230469 16.433594 27.628906 17.488281 27.589844 C 17.914062 27.574219 18.730469 26.445312 19.769531 25.265625 C 20.007812 24.996094 20.257812 24.722656 20.515625 24.460938 C 21.9375 23.027344 23.597656 21.898438 25.371094 23.132812 C 25.570312 23.273438 25.75 23.429688 25.914062 23.609375 Z M 25.914062 23.609375 " fill-opacity="1" fill-rule="nonzero"/><path fill="#ffd961" d="M 21.613281 25.519531 C 21.316406 25.742188 21.023438 25.980469 20.75 26.222656 C 20.40625 25.917969 20.082031 25.597656 19.769531 25.265625 C 20.007812 24.996094 20.257812 24.722656 20.515625 24.460938 C 20.863281 24.832031 21.230469 25.183594 21.613281 25.519531 Z M 21.613281 25.519531 " fill-opacity="1" fill-rule="nonzero"/><path fill="#ffc250" d="M 34.644531 29.933594 C 34.644531 30.148438 34.59375 30.351562 34.488281 30.539062 C 34.40625 30.679688 34.304688 30.800781 34.175781 30.902344 C 34.046875 31.007812 33.898438 31.082031 33.738281 31.125 C 33.582031 31.171875 33.417969 31.1875 33.253906 31.167969 C 33.085938 31.148438 32.929688 31.101562 32.785156 31.023438 C 32.640625 30.941406 32.515625 30.839844 32.410156 30.710938 L 31.78125 29.925781 L 32.507812 29.351562 L 33.738281 28.375 L 34.371094 29.15625 C 34.554688 29.382812 34.644531 29.640625 34.644531 29.933594 Z M 34.644531 29.933594 " fill-opacity="1" fill-rule="nonzero"/><path fill="#ffb426" d="M 34.488281 30.539062 C 34.40625 30.679688 34.304688 30.800781 34.175781 30.902344 C 34.046875 31.007812 33.898438 31.082031 33.738281 31.125 C 33.582031 31.171875 33.417969 31.1875 33.253906 31.167969 C 33.085938 31.148438 32.929688 31.101562 32.785156 31.023438 C 32.640625 30.941406 32.515625 30.839844 32.410156 30.710938 L 31.78125 29.925781 L 32.507812 29.351562 C 33.148438 30.160156 33.847656 30.476562 34.488281 30.539062 Z M 34.488281 30.539062 " fill-opacity="1" fill-rule="nonzero"/><g clip-path="url(#b01390b25c)"><path fill="#ffe07d" d="M 36.753906 26.78125 C 35.183594 28.632812 33.359375 30.203125 31.289062 31.488281 C 30.742188 31.832031 30.175781 32.152344 29.589844 32.453125 C 29.589844 32.453125 29.007812 32.265625 29.292969 31.257812 C 29.40625 30.851562 28.5625 29.738281 27.742188 28.394531 C 27.554688 28.089844 27.367188 27.769531 27.191406 27.445312 C 26.246094 25.667969 25.738281 23.855469 27.441406 22.511719 C 27.574219 22.414062 27.710938 22.324219 27.855469 22.246094 C 29.457031 21.371094 30.972656 22.175781 32.402344 23.40625 C 32.683594 23.644531 32.953125 23.898438 33.214844 24.148438 C 34.332031 25.21875 35.222656 26.25 35.640625 26.230469 C 36.699219 26.179688 36.753906 26.78125 36.753906 26.78125 Z M 36.753906 26.78125 " fill-opacity="1" fill-rule="nonzero"/></g><path fill="#ffc250" d="M 33.214844 24.148438 C 32.476562 25.015625 31.660156 25.804688 30.765625 26.519531 C 30.28125 26.902344 29.773438 27.257812 29.246094 27.582031 C 28.761719 27.882812 28.261719 28.152344 27.742188 28.394531 C 27.554688 28.089844 27.367188 27.769531 27.191406 27.445312 C 27.753906 27.183594 28.289062 26.890625 28.808594 26.558594 C 30.171875 25.6875 31.367188 24.636719 32.402344 23.40625 C 32.683594 23.648438 32.953125 23.898438 33.214844 24.148438 Z M 33.214844 24.148438 " fill-opacity="1" fill-rule="nonzero"/><path fill="#ffd757" d="M 31.289062 31.488281 C 30.742188 31.832031 30.175781 32.152344 29.589844 32.453125 C 29.589844 32.453125 29.007812 32.265625 29.292969 31.257812 C 29.40625 30.851562 28.5625 29.738281 27.742188 28.394531 C 27.554688 28.089844 27.367188 27.769531 27.191406 27.445312 C 26.246094 25.667969 25.738281 23.855469 27.441406 22.511719 C 27.574219 22.414062 27.710938 22.324219 27.855469 22.246094 C 27.597656 24.773438 29.957031 29.214844 31.289062 31.488281 Z M 31.289062 31.488281 " fill-opacity="1" fill-rule="nonzero"/><path fill="#ffba38" d="M 29.246094 27.582031 C 28.761719 27.882812 28.261719 28.152344 27.742188 28.394531 C 27.554688 28.089844 27.367188 27.769531 27.191406 27.445312 C 27.753906 27.183594 28.289062 26.890625 28.808594 26.558594 C 28.945312 26.902344 29.09375 27.246094 29.246094 27.582031 Z M 29.246094 27.582031 " fill-opacity="1" fill-rule="nonzero"/><g clip-path="url(#8cb3f798d1)"><path fill="#d4656f" d="M 26.589844 21.476562 C 25.386719 20.53125 23.628906 19.953125 24.164062 18.277344 C 24.480469 17.398438 25.5625 17.339844 26.199219 17.960938 C 24.375 18.957031 26.496094 21.371094 26.589844 21.476562 Z M 26.589844 21.476562 " fill-opacity="1" fill-rule="nonzero"/></g></svg>