<svg xmlns="http://www.w3.org/2000/svg" xmlns:xlink="http://www.w3.org/1999/xlink" width="100" zoomAndPan="magnify" viewBox="0 0 75 74.999997" height="100" preserveAspectRatio="xMidYMid meet" version="1.0"><defs><clipPath id="ad0dff9faf"><path d="M 12.605469 3.269531 L 61 3.269531 L 61 70.769531 L 12.605469 70.769531 Z M 12.605469 3.269531 " clip-rule="nonzero"/></clipPath><clipPath id="e035aebb19"><path d="M 12.605469 19 L 61 19 L 61 62 L 12.605469 62 Z M 12.605469 19 " clip-rule="nonzero"/></clipPath></defs><rect x="-7.5" width="90" fill="#ffffff" y="-7.5" height="89.999996" fill-opacity="1"/><rect x="-7.5" width="90" fill="#ffffff" y="-7.5" height="89.999996" fill-opacity="1"/><rect x="-7.5" width="90" fill="#ffffff" y="-7.5" height="89.999996" fill-opacity="1"/><g clip-path="url(#ad0dff9faf)"><path fill="#f7e7ce" d="M 55.617188 31.132812 L 60.492188 28.265625 L 60.578125 28.304688 C 60.597656 28.3125 60.617188 28.320312 60.636719 28.320312 C 60.6875 28.320312 60.734375 28.289062 60.757812 28.242188 C 60.789062 28.171875 60.761719 28.09375 60.691406 28.0625 L 60.570312 28.003906 L 59.125 23.992188 L 59.175781 23.957031 C 59.238281 23.914062 59.253906 23.832031 59.210938 23.769531 C 59.167969 23.707031 59.082031 23.695312 59.019531 23.738281 L 58.957031 23.78125 L 55.808594 22.316406 L 55.804688 22.242188 C 55.796875 22.183594 55.761719 22.140625 55.707031 22.121094 C 55.664062 22.09375 55.605469 22.09375 55.558594 22.125 L 55.496094 22.171875 L 52.347656 20.707031 L 52.339844 20.628906 C 52.332031 20.554688 52.269531 20.5 52.191406 20.507812 C 52.117188 20.511719 52.0625 20.578125 52.070312 20.652344 L 52.070312 20.6875 L 48.007812 22.164062 L 47.886719 22.109375 C 47.820312 22.078125 47.738281 22.105469 47.707031 22.171875 C 47.675781 22.242188 47.703125 22.320312 47.769531 22.351562 L 47.855469 22.390625 L 48.753906 27.945312 C 48.3125 28.878906 48.292969 29.898438 48.613281 30.800781 C 46.957031 30.347656 45.265625 30.175781 43.609375 30.261719 C 41.59375 23.867188 35.574219 19.230469 28.464844 19.230469 C 19.707031 19.230469 12.605469 26.269531 12.605469 34.957031 C 12.605469 43.644531 19.707031 50.6875 28.464844 50.6875 C 28.742188 50.6875 29.011719 50.679688 29.285156 50.667969 C 30.566406 54.726562 33.496094 58.261719 37.6875 60.207031 C 45.617188 63.894531 55.0625 60.507812 58.78125 52.644531 C 62.109375 45.601562 59.71875 37.363281 53.492188 33.066406 C 54.394531 32.738281 55.175781 32.070312 55.617188 31.132812 M 28.65625 47.714844 C 28.59375 47.71875 28.53125 47.71875 28.464844 47.71875 C 21.371094 47.71875 15.597656 41.996094 15.597656 34.957031 C 15.597656 27.921875 21.371094 22.199219 28.464844 22.199219 C 34.058594 22.199219 38.828125 25.753906 40.597656 30.703125 C 36.121094 31.808594 32.167969 34.828125 30.058594 39.289062 C 28.769531 42.019531 28.335938 44.925781 28.65625 47.714844 Z M 32.769531 40.550781 C 34.46875 36.957031 37.652344 34.511719 41.261719 33.601562 C 41.308594 34.046875 41.335938 34.5 41.335938 34.957031 C 41.335938 40.914062 37.199219 45.925781 31.628906 47.328125 C 31.382812 45.082031 31.730469 42.742188 32.769531 40.550781 Z M 56.070312 51.382812 C 53.058594 57.753906 45.382812 60.507812 38.957031 57.519531 C 35.71875 56.015625 33.40625 53.332031 32.296875 50.226562 C 39.207031 48.527344 44.328125 42.335938 44.328125 34.957031 C 44.328125 34.367188 44.292969 33.785156 44.230469 33.210938 C 46.125 33.179688 48.050781 33.5625 49.878906 34.414062 C 56.304688 37.398438 59.082031 45.011719 56.070312 51.382812 Z M 43.695312 16.753906 L 46.980469 17.363281 L 43.695312 17.972656 L 43.082031 21.230469 L 42.464844 17.972656 L 39.179688 17.363281 L 42.464844 16.753906 L 43.082031 13.492188 Z M 48.960938 10.375 L 43.824219 9.421875 L 48.960938 8.46875 L 49.921875 3.375 L 50.878906 8.46875 L 56.015625 9.421875 L 50.878906 10.375 L 49.921875 15.464844 Z M 20.40625 57.832031 L 17.121094 58.441406 L 16.507812 61.699219 L 15.890625 58.441406 L 12.605469 57.832031 L 15.890625 57.222656 L 16.507812 53.964844 L 17.121094 57.222656 Z M 25.472656 63.660156 L 30.609375 64.613281 L 25.472656 65.566406 L 24.511719 70.660156 L 23.550781 65.566406 L 18.417969 64.613281 L 23.550781 63.660156 L 24.511719 58.570312 Z M 25.472656 63.660156 " fill-opacity="1" fill-rule="nonzero"/></g><g clip-path="url(#e035aebb19)"><path fill="#d7ae54" d="M 53.492188 33.066406 C 54.394531 32.738281 55.175781 32.066406 55.617188 31.132812 L 53.472656 30.136719 L 53.464844 30.152344 C 53.4375 30.195312 53.394531 30.214844 53.347656 30.214844 C 53.324219 30.214844 53.296875 30.207031 53.277344 30.195312 C 53.21875 30.15625 53.199219 30.085938 53.226562 30.023438 L 51.140625 29.054688 C 51.117188 29.101562 51.070312 29.132812 51.019531 29.132812 C 51.007812 29.132812 50.992188 29.128906 50.980469 29.125 C 50.90625 29.101562 50.867188 29.027344 50.890625 28.957031 L 50.894531 28.941406 L 50.367188 28.695312 L 48.753906 27.945312 C 48.3125 28.878906 48.292969 29.898438 48.613281 30.800781 C 46.957031 30.347656 45.265625 30.175781 43.609375 30.261719 C 41.59375 23.867188 35.574219 19.230469 28.464844 19.230469 C 19.707031 19.230469 12.605469 26.269531 12.605469 34.957031 C 12.605469 43.644531 19.707031 50.6875 28.464844 50.6875 C 28.742188 50.6875 29.011719 50.679688 29.285156 50.667969 C 30.566406 54.726562 33.496094 58.261719 37.6875 60.207031 C 45.617188 63.894531 55.0625 60.507812 58.78125 52.644531 C 62.109375 45.601562 59.71875 37.363281 53.492188 33.066406 Z M 28.65625 47.714844 C 28.59375 47.71875 28.53125 47.71875 28.464844 47.71875 C 21.371094 47.71875 15.597656 41.996094 15.597656 34.957031 C 15.597656 27.921875 21.371094 22.199219 28.464844 22.199219 C 34.058594 22.199219 38.828125 25.753906 40.597656 30.703125 C 36.121094 31.808594 32.167969 34.828125 30.058594 39.289062 C 28.769531 42.019531 28.335938 44.925781 28.65625 47.714844 Z M 32.769531 40.550781 C 34.46875 36.957031 37.652344 34.511719 41.261719 33.601562 C 41.308594 34.046875 41.335938 34.5 41.335938 34.957031 C 41.335938 40.914062 37.199219 45.925781 31.628906 47.328125 C 31.382812 45.082031 31.730469 42.742188 32.769531 40.550781 Z M 56.070312 51.382812 C 53.058594 57.753906 45.382812 60.507812 38.957031 57.519531 C 35.71875 56.015625 33.40625 53.332031 32.296875 50.226562 C 39.207031 48.527344 44.328125 42.335938 44.328125 34.957031 C 44.328125 34.367188 44.292969 33.785156 44.230469 33.210938 C 46.125 33.179688 48.050781 33.5625 49.878906 34.414062 C 56.304688 37.398438 59.082031 45.011719 56.070312 51.382812 Z M 56.070312 51.382812 " fill-opacity="1" fill-rule="nonzero"/></g><path fill="#08554c" d="M 60.691406 28.0625 L 60.570312 28.003906 L 56.25 25.996094 L 59.125 23.992188 L 59.175781 23.957031 C 59.238281 23.914062 59.253906 23.832031 59.210938 23.769531 C 59.167969 23.707031 59.082031 23.695312 59.019531 23.738281 L 58.957031 23.78125 L 56.09375 25.773438 L 55.808594 22.316406 L 55.804688 22.242188 C 55.796875 22.183594 55.761719 22.140625 55.707031 22.121094 C 55.664062 22.09375 55.605469 22.09375 55.558594 22.125 L 55.496094 22.171875 L 52.632812 24.164062 L 52.347656 20.707031 L 52.339844 20.628906 C 52.332031 20.554688 52.269531 20.5 52.191406 20.507812 C 52.117188 20.511719 52.0625 20.578125 52.070312 20.652344 L 52.070312 20.6875 L 52.363281 24.1875 L 48.007812 22.164062 L 47.886719 22.109375 C 47.820312 22.078125 47.738281 22.105469 47.707031 22.171875 C 47.675781 22.242188 47.703125 22.320312 47.769531 22.351562 L 47.855469 22.390625 L 52.320312 24.46875 L 50.894531 28.941406 L 50.890625 28.957031 C 50.867188 29.027344 50.90625 29.101562 50.980469 29.125 C 50.992188 29.128906 51.007812 29.132812 51.019531 29.132812 C 51.070312 29.132812 51.117188 29.101562 51.140625 29.054688 C 51.144531 29.046875 51.148438 29.042969 51.148438 29.039062 L 52.566406 24.582031 L 55.78125 26.074219 L 53.234375 30.007812 C 53.230469 30.011719 53.230469 30.019531 53.226562 30.023438 C 53.199219 30.085938 53.21875 30.15625 53.277344 30.195312 C 53.296875 30.207031 53.324219 30.214844 53.347656 30.214844 C 53.394531 30.214844 53.4375 30.191406 53.464844 30.152344 L 53.472656 30.136719 L 56.03125 26.191406 L 60.492188 28.265625 L 60.578125 28.304688 C 60.597656 28.3125 60.617188 28.320312 60.636719 28.320312 C 60.6875 28.320312 60.734375 28.289062 60.757812 28.242188 C 60.789062 28.171875 60.761719 28.09375 60.691406 28.0625 Z M 52.785156 24.386719 L 55.546875 22.460938 L 55.824219 25.796875 Z M 52.785156 24.386719 " fill-opacity="1" fill-rule="nonzero"/></svg>